<svg t="1568787469049" class="icon" viewBox="0 0 1024 1024" version="1.1" xmlns="http://www.w3.org/2000/svg" p-id="1917" width="200" height="200"><path d="M0 170.24A127.573333 127.573333 0 0 1 127.616 42.666667H896.426667A127.786667 127.786667 0 0 1 1024 170.24v683.52A127.573333 127.573333 0 0 1 896.384 981.333333H127.573333A127.786667 127.786667 0 0 1 0 853.76V170.24z m85.333333 0v683.52c0 23.125333 19.072 42.24 42.282667 42.24H896.426667a42.24 42.24 0 0 0 42.282666-42.24V170.24a42.453333 42.453333 0 0 0-42.282666-42.24H127.573333A42.24 42.24 0 0 0 85.333333 170.24z m318.378667 582.613333a42.666667 42.666667 0 0 0 65.152-55.04l-180.266667-213.333333a42.666667 42.666667 0 0 0-62.762666-2.645333L85.12 626.773333v120.149334l168.234667-171.946667 150.357333 177.92z m534.485333-9.728v-132.949333L736.426667 372.48a42.666667 42.666667 0 0 0-65.578667 0.725333L406.272 698.453333a42.666667 42.666667 0 1 0 66.218667 53.845334l232.277333-285.44 233.386667 276.309333zM341.333333 352a53.333333 53.333333 0 1 0 0-106.666667 53.333333 53.333333 0 0 0 0 106.666667z m0 64a117.333333 117.333333 0 1 1 0-234.666667 117.333333 117.333333 0 0 1 0 234.666667z" p-id="1918" fill="#dbdbdb"></path></svg>