<svg t="1569402937669" class="icon" viewBox="0 0 1024 1024" version="1.1" xmlns="http://www.w3.org/2000/svg" p-id="1125" width="200" height="200"><path d="M510.339686 62.454424c-247.300362 0-447.778326 200.476941-447.778326 447.774233 0 247.301386 200.476941 447.78242 447.778326 447.78242 247.298316 0 447.777303-200.481034 447.777303-447.78242C958.116989 262.931365 757.638001 62.454424 510.339686 62.454424zM506.566756 838.46026c-10.617825 10.197246-23.331381 15.297404-38.139645 15.297404-14.250562 0-26.685779-5.02955-37.303604-15.087627-10.617825-10.0591-15.927761-22.76754-15.927761-38.141692 0-15.087627 5.240351-27.729551 15.717983-37.930891 10.477632-10.19213 22.982434-15.297404 37.513382-15.297404 14.808264 0 27.52182 5.172813 38.139645 15.510252 10.617825 10.339486 15.927761 22.916942 15.927761 37.718043C522.49554 815.615972 517.184581 828.26506 506.566756 838.46026zM653.262816 427.92107c-15.08865 26.549679-40.376593 54.487985-75.862805 83.826174-28.501124 23.754007-47.641043 42.615587-57.421804 56.582693-9.779737 13.974269-14.669094 33.530674-14.669094 58.677401l0 32.69361-72.92694 0 0-36.045961c0-29.339212 5.866614-54.553477 17.602913-75.653027 11.736299-21.093411 32.692586-43.38102 62.869886-66.851571 29.616528-22.910802 50.78464-44.354184 63.49922-64.337307 12.71151-19.97596 19.070334-42.960441 19.070334-68.946278 0-27.663036-9.851369-50.431599-29.551036-68.317968-19.698644-17.879206-46.454008-26.823925-80.263022-26.823925-53.368488 0-100.310613 20.261463-140.827399 60.773132l0-85.501326c46.943149-29.340235 97.798397-44.008306 152.562675-44.008306 54.489008 0 97.869005 14.323217 130.142036 42.959418 32.268938 28.64541 48.409546 66.155722 48.409546 112.537076C675.896302 371.901195 668.350442 401.3806 653.262816 427.92107z" p-id="1126" fill="#707070"></path></svg>