<svg t="1569407460430" class="icon" viewBox="0 0 1024 1024" version="1.1" xmlns="http://www.w3.org/2000/svg" p-id="3129" width="200" height="200"><path d="M423.40625 691.92009978c-140.41725841 0-254.68306132-114.26580291-254.68306132-254.68306131S282.98899159 182.55397716 423.40625 182.55397716 678.11328125 296.81978007 678.11328125 437.23703847c0 65.15092358-24.59339496 127.16175459-69.22585216 174.57475145a252.40589496 252.40589496 0 0 1-185.45720916 80.10830986z m454.83398438 166.25710165l-0.47940336-0.52734325-0.88689614-0.93483678-218.29634258-229.34659138a301.16122137 301.16122137 0 0 0 67.45205987-190.13139155c0-166.83238629-135.76704517-302.62340217-302.62340217-302.62340218C256.57386371 134.61363629 120.80681853 270.38068147 120.80681853 437.23703847s135.76704517 302.62340217 302.6234014 302.62340218c74.59517043 0 146.84126392-28.16495023 202.09250723-77.71129306l217.9847303 229.05894905 0.07191058-0.04794064c4.62624252 4.86594498 11.0262781 7.9580969 18.24129924 7.67045457 13.3274144-0.527344 23.6825281-11.74538315 23.15518488-25.07279832a23.92222979 23.92222979 0 0 0-6.78355843-15.53267018l0.07191058-0.04794065z" p-id="3130" fill="#ffffff"></path></svg>