<svg t="1570611225432" class="icon" viewBox="0 0 1024 1024" version="1.1" xmlns="http://www.w3.org/2000/svg" p-id="3745" width="200" height="200"><path d="M446.836364 723.781818c-160.581818 0-290.909091-130.327273-290.909091-290.909091S286.254545 141.963636 446.836364 141.963636s290.909091 130.327273 290.909091 290.909091-130.327273 290.909091-290.909091 290.909091z m0-558.545454c-146.618182 0-267.636364 121.018182-267.636364 267.636363s121.018182 267.636364 267.636364 267.636364 267.636364-121.018182 267.636363-267.636364S593.454545 165.236364 446.836364 165.236364zM877.381818 875.054545c-2.327273 0-6.981818 0-9.309091-2.327272l-232.727272-232.727273c-4.654545-4.654545-4.654545-11.636364 0-16.290909s11.636364-4.654545 16.290909 0l232.727272 232.727273c4.654545 4.654545 4.654545 11.636364 0 16.290909 0 0-4.654545 2.327273-6.981818 2.327272z" p-id="3746" fill="#bfbfbf"></path></svg>