<svg t="1571118715967" class="icon" viewBox="0 0 1024 1024" version="1.1" xmlns="http://www.w3.org/2000/svg" p-id="2488" width="200" height="200"><path d="M617.179429 481.28L1009.225143 89.234286a51.2 51.2 0 0 0 0-72.118857L1006.884571 15.067429a51.2 51.2 0 0 0-72.265142 0L542.72 407.552 150.966857 14.921143a51.2 51.2 0 0 0-72.118857 0L76.507429 16.969143a50.322286 50.322286 0 0 0 0 72.265143l392.045714 392.045714-392.045714 392.045714a51.2 51.2 0 0 0 0 72.118857l2.194285 2.194286a51.2 51.2 0 0 0 72.118857 0l392.045715-392.045714 392.045714 392.045714a51.2 51.2 0 0 0 72.118857 0l2.048-2.194286a51.2 51.2 0 0 0 0-72.118857l-392.045714-392.045714z" fill="#999999" p-id="2489"></path></svg>